<svg xmlns="http://www.w3.org/2000/svg" xml:space="preserve" width="1067" height="1067" style="fill-rule:evenodd;clip-rule:evenodd;stroke-linejoin:round;stroke-miterlimit:2" id="x">
  <g>
    <path d="M1000.01,172.163c0,-27.627 -10.974,-54.122 -30.509,-73.657c-19.535,-19.535 -46.031,-30.51 -73.657,-30.51l-725,-0c-27.627,-0 -54.122,10.975 -73.657,30.51c-19.535,19.535 -30.51,46.03 -30.51,73.657l0,725c0,27.626 10.975,54.122 30.51,73.657c19.535,19.535 46.03,30.509 73.657,30.509l725,0c27.626,0 54.122,-10.974 73.657,-30.509c19.535,-19.535 30.509,-46.031 30.509,-73.657l0,-725Z"></path>
    <path d="M441.073,557.017l-248.505,-355.688l200.893,0l154.795,221.56l177.05,-221.56l148.81,0l-256.445,320.914l241.564,345.753l-200.893,-0l-147.854,-211.624l-169.111,211.624l-148.809,-0l248.505,-310.979Zm240.538,266.336l-403.394,-577.381l91.975,0c59.063,84.539 298.9,427.819 403.393,577.381c0,0 -91.974,0 -91.974,0Z" style="fill:#fff"></path>
  </g>
</svg>
